G75*
%MOIN*%
%OFA0B0*%
%FSLAX25Y25*%
%IPPOS*%
%LPD*%
%AMOC8*
5,1,8,0,0,1.08239X$1,22.5*
%
%ADD10C,0.16248*%
%ADD11OC8,0.05300*%
%ADD12R,0.08500X0.03100*%
%ADD13C,0.05300*%
%ADD14OC8,0.08100*%
%ADD15C,0.07193*%
%ADD16C,0.06500*%
%ADD17OC8,0.06800*%
%ADD18C,0.06800*%
%ADD19C,0.03278*%
%ADD20C,0.03500*%
%ADD21C,0.03700*%
D10*
X0118500Y0203550D03*
X0198500Y0203550D03*
D11*
X0043500Y0033550D03*
X0043500Y0043550D03*
X0083500Y0043550D03*
X0083500Y0033550D03*
X0123500Y0033550D03*
X0123500Y0043550D03*
X0163500Y0043550D03*
X0163500Y0033550D03*
X0203500Y0033550D03*
X0203500Y0043550D03*
X0228500Y0043550D03*
X0228500Y0033550D03*
X0306000Y0086662D03*
X0316000Y0086662D03*
X0316000Y0103550D03*
X0306000Y0103550D03*
X0243500Y0119000D03*
X0233500Y0119000D03*
X0203500Y0119037D03*
X0193500Y0119037D03*
X0162275Y0118975D03*
X0152275Y0118975D03*
X0123500Y0119162D03*
X0113500Y0119162D03*
X0085388Y0119162D03*
X0075388Y0119162D03*
X0048500Y0119162D03*
X0038500Y0119162D03*
X0038500Y0146050D03*
X0048500Y0146050D03*
X0076000Y0146050D03*
X0086000Y0146050D03*
X0113500Y0146050D03*
X0123500Y0146050D03*
X0152275Y0145988D03*
X0162275Y0145988D03*
X0193500Y0146050D03*
X0203500Y0146050D03*
X0233500Y0145988D03*
X0243500Y0145988D03*
X0243500Y0173612D03*
X0233500Y0173612D03*
X0203500Y0173675D03*
X0193500Y0173675D03*
X0162275Y0173612D03*
X0152275Y0173612D03*
X0123500Y0173550D03*
X0113500Y0173550D03*
X0086000Y0173550D03*
X0076000Y0173550D03*
X0076000Y0201050D03*
X0086000Y0201050D03*
X0152275Y0201237D03*
X0162275Y0201237D03*
X0233500Y0201237D03*
X0243500Y0201237D03*
D12*
X0271400Y0086050D03*
X0271400Y0081050D03*
X0271400Y0076050D03*
X0271400Y0071050D03*
X0271400Y0066050D03*
X0271400Y0061050D03*
X0271400Y0056050D03*
X0271400Y0051050D03*
X0295600Y0051050D03*
X0295600Y0056050D03*
X0295600Y0061050D03*
X0295600Y0066050D03*
X0295600Y0071050D03*
X0295600Y0076050D03*
X0295600Y0081050D03*
X0295600Y0086050D03*
X0115600Y0083550D03*
X0115600Y0078550D03*
X0115600Y0073550D03*
X0115600Y0068550D03*
X0115600Y0063550D03*
X0115600Y0058550D03*
X0115600Y0053550D03*
X0091400Y0053550D03*
X0091400Y0058550D03*
X0091400Y0063550D03*
X0091400Y0068550D03*
X0091400Y0073550D03*
X0091400Y0078550D03*
X0091400Y0083550D03*
D13*
X0296000Y0096050D03*
X0296000Y0106050D03*
D14*
X0291000Y0033550D03*
X0281000Y0033550D03*
X0271000Y0033550D03*
X0261000Y0033550D03*
X0306000Y0033550D03*
X0316000Y0033550D03*
D15*
X0237750Y0098412D03*
X0207750Y0098412D03*
X0168500Y0098550D03*
X0138500Y0098550D03*
X0116000Y0098550D03*
X0086000Y0098550D03*
X0066000Y0098550D03*
X0036000Y0098550D03*
D16*
X0036200Y0167150D02*
X0030200Y0167150D01*
X0030200Y0184950D02*
X0036200Y0184950D01*
X0055800Y0184950D02*
X0061800Y0184950D01*
X0061800Y0167150D02*
X0055800Y0167150D01*
X0133763Y0192400D02*
X0139763Y0192400D01*
X0139763Y0202400D02*
X0133763Y0202400D01*
X0284600Y0186850D02*
X0284600Y0180850D01*
X0302400Y0180850D02*
X0302400Y0186850D01*
X0298463Y0199912D02*
X0298463Y0205912D01*
X0308463Y0205912D02*
X0308463Y0199912D01*
X0288463Y0199912D02*
X0288463Y0205912D01*
X0284600Y0161250D02*
X0284600Y0155250D01*
X0284600Y0146850D02*
X0284600Y0140850D01*
X0302400Y0140850D02*
X0302400Y0146850D01*
X0302400Y0155250D02*
X0302400Y0161250D01*
X0302400Y0121250D02*
X0302400Y0115250D01*
X0284600Y0115250D02*
X0284600Y0121250D01*
D17*
X0244375Y0042138D03*
D18*
X0244375Y0032137D03*
D19*
X0256000Y0045064D03*
X0238500Y0056050D03*
X0223737Y0060200D03*
X0198500Y0061050D03*
X0184537Y0084700D03*
X0193500Y0093550D03*
X0193500Y0106050D03*
X0222250Y0084800D03*
X0241000Y0081050D03*
X0249112Y0081050D03*
X0252250Y0091050D03*
X0258500Y0096050D03*
X0273500Y0091050D03*
X0278500Y0086050D03*
X0288500Y0083550D03*
X0278500Y0076050D03*
X0278500Y0071050D03*
X0288500Y0071050D03*
X0283500Y0061050D03*
X0263500Y0081050D03*
X0240961Y0091050D03*
X0287438Y0092661D03*
X0293500Y0126050D03*
X0297850Y0134925D03*
X0293500Y0141050D03*
X0308263Y0134925D03*
X0247012Y0137375D03*
X0220062Y0137375D03*
X0220062Y0164325D03*
X0247012Y0164938D03*
X0262938Y0191887D03*
X0273500Y0211050D03*
X0180862Y0192500D03*
X0166163Y0164325D03*
X0166163Y0137375D03*
X0140438Y0137375D03*
X0108587Y0158813D03*
X0124512Y0165550D03*
X0111037Y0185762D03*
X0103075Y0191887D03*
X0088375Y0165550D03*
X0088375Y0137375D03*
X0051012Y0137375D03*
X0093500Y0108550D03*
X0101768Y0103661D03*
X0114750Y0107300D03*
X0123500Y0106050D03*
X0111601Y0091050D03*
X0123500Y0086050D03*
X0122009Y0076061D03*
X0127575Y0068775D03*
X0143500Y0064800D03*
X0157990Y0075540D03*
X0168525Y0081050D03*
X0168500Y0068550D03*
X0151000Y0091050D03*
X0105362Y0061050D03*
X0102250Y0063550D03*
X0081000Y0066050D03*
X0078500Y0074800D03*
X0083500Y0078550D03*
X0085787Y0081050D03*
X0078500Y0081050D03*
X0078500Y0088550D03*
X0077250Y0093550D03*
X0071000Y0091050D03*
X0062250Y0093550D03*
X0046289Y0076050D03*
X0038500Y0076050D03*
X0024489Y0081050D03*
X0033500Y0091050D03*
X0081000Y0056050D03*
X0086289Y0048550D03*
X0073500Y0041050D03*
X0071000Y0046050D03*
X0120711Y0050283D03*
X0089750Y0089800D03*
D20*
X0130637Y0098175D03*
X0183925Y0092050D03*
X0223125Y0097562D03*
X0239050Y0073675D03*
X0279475Y0050400D03*
X0283763Y0046725D03*
X0278250Y0045500D03*
X0287438Y0052237D03*
X0198625Y0126350D03*
X0183925Y0157588D03*
X0186375Y0185762D03*
X0225575Y0186375D03*
X0225575Y0158200D03*
X0143500Y0158813D03*
X0142275Y0182087D03*
X0063875Y0061425D03*
X0042438Y0055912D03*
X0103075Y0046725D03*
X0103687Y0031412D03*
X0143500Y0054687D03*
X0160038Y0055300D03*
D21*
X0183925Y0067550D03*
X0168000Y0076125D03*
X0158813Y0087762D03*
X0177800Y0097562D03*
X0231700Y0090825D03*
X0247625Y0076125D03*
M02*
