M48
;GenerationSoftware,Autodesk,EAGLE,9.1.0*%
;CreationDate,2019-12-30T04:36:41Z*%
FMAT,2
ICI,OFF
METRIC,TZ,000.000
T8C0.350
T7C0.406
T6C0.457
T5C0.813
T4C1.016
T3C1.100
T2C4.000
%
G90
M71
T2
X45241Y45745
X24921Y45745
T3
X16666Y19075
X24286Y19075
X47590Y19040
X55210Y19040
X30001Y19075
X37621Y19075
X3966Y19075
X11586Y19075
T4
X67110Y40742
X29559Y45453
X71631Y34239
X67110Y34239
X71631Y30582
X67110Y30582
X71631Y24079
X67110Y24079
X68736Y2565
X66196Y2565
X63656Y2565
X61116Y2565
X75086Y2565
X72546Y2565
X71631Y40742
X73171Y45583
X70631Y45583
X68091Y45583
X29559Y42913
X9757Y41021
X9757Y36500
X3254Y36500
X3254Y41021
T5
X36039Y38141
X46511Y24279
X5871Y5105
X5871Y2565
X26191Y5105
X26191Y2565
X33499Y45158
X36039Y45158
X33499Y38141
X43971Y31140
X33499Y31125
X36039Y31125
X33499Y24263
X36039Y24263
X23651Y38125
X26191Y38125
X23651Y31140
X26191Y31140
X23651Y24311
X54131Y38141
X75086Y20345
X72546Y20345
X70006Y20980
X70006Y18440
X56671Y24270
X54131Y24270
X56671Y31125
X54131Y31125
X56671Y38141
X43971Y24279
X56671Y45158
X54131Y45158
X75086Y16056
X26191Y24311
X43971Y38157
X46511Y38157
X72546Y16056
X46511Y31140
X52861Y5105
X56893Y4747
X56893Y2207
X36351Y2565
X36351Y5105
X7141Y24311
X4601Y24311
X7141Y31140
X4601Y31140
X16510Y24311
X13970Y24311
X16666Y31140
X14126Y31140
X16666Y38125
X14126Y38125
X16666Y45110
X14126Y45110
X16031Y2565
X16031Y5105
X46511Y2565
X46511Y5105
X52861Y2565
T6
X41539Y11201
X53673Y17113
X39983Y18825
X35160Y16335
X37494Y13379
X57718Y13379
T7
X21158Y2022
X41539Y17424
X28003Y18980
X51495Y18825
X55540Y12757
X52118Y34227
X66897Y5912
X67831Y7312
X52118Y41383
X41539Y34071
X65497Y5601
X65808Y6845
X35471Y8090
X30959Y40294
X31271Y34382
X42161Y41227
X45272Y26137
X21003Y5912
X31271Y7934
X11046Y9646
X5601Y8245
T8
X27226Y11513
X26191Y20980
X58096Y14630
X51273Y15583
X33176Y17170
X58893Y17170
X56026Y17170
X37621Y11455
X45241Y9550
X43971Y17805
X43971Y20980
X56036Y14630
X26191Y15900
X25482Y6816
X21584Y9550
X16739Y6375
X23968Y21298
X20793Y10185
X20671Y20374
X23168Y17170
X34951Y13231
X14761Y16535
X14443Y17805
X10633Y17805
X23025Y41227
X22403Y34382
X65561Y15900
X66831Y9550
X1042Y14630
X25812Y13363
X37627Y14630
X14761Y14630
X12856Y5740
X51651Y9335
X65561Y13360
X68101Y12090
X68101Y15265
X65561Y12090
X61751Y14630
X37027Y28937
X3331Y17170
X13491Y4470
X21003Y42783
X40761Y42939
X61608Y42783
X57563Y35938
X57563Y28937
X50717Y35782
X50717Y28937
X12856Y17170
X37027Y35782
X30493Y28937
X17269Y28937
X7779Y28937
X17269Y36093
X26448Y36093
X17618Y16853
X41694Y15557
X73120Y28315
X31271Y10503
X18571Y21615
X16031Y13995
X15396Y8280
X15396Y10820
X4601Y13360
X6579Y13360
X14761Y13043
X16612Y14630
X67831Y17580
X70475Y28315
X69371Y29870
X69371Y26060
X64291Y17170
X59846Y5490
X64291Y47650
X60481Y18440
X55401Y8280
M30