G04 EAGLE Gerber X2 export*
%TF.Part,Single*%
%TF.FileFunction,Profile,NP*%
%TF.FilePolarity,Positive*%
%TF.GenerationSoftware,Autodesk,EAGLE,9.1.0*%
%TF.CreationDate,2019-12-30T04:36:43Z*%
G75*
%MOMM*%
%FSLAX34Y34*%
%LPD*%
%AMOC8*
5,1,8,0,0,1.08239X$1,22.5*%
G01*
%ADD10C,0.254000*%


D10*
X0Y25400D02*
X97Y23186D01*
X386Y20989D01*
X865Y18826D01*
X1532Y16713D01*
X2380Y14666D01*
X3403Y12700D01*
X4594Y10831D01*
X5942Y9073D01*
X7440Y7440D01*
X9073Y5942D01*
X10831Y4594D01*
X12700Y3403D01*
X14666Y2380D01*
X16713Y1532D01*
X18826Y865D01*
X20989Y386D01*
X23186Y97D01*
X25400Y0D01*
X749300Y0D01*
X751514Y97D01*
X753711Y386D01*
X755874Y865D01*
X757987Y1532D01*
X760035Y2380D01*
X762000Y3403D01*
X763869Y4594D01*
X765627Y5942D01*
X767261Y7440D01*
X768758Y9073D01*
X770106Y10831D01*
X771297Y12700D01*
X772320Y14666D01*
X773168Y16713D01*
X773835Y18826D01*
X774314Y20989D01*
X774603Y23186D01*
X774700Y25400D01*
X774700Y469900D01*
X774603Y472114D01*
X774314Y474311D01*
X773835Y476474D01*
X773168Y478587D01*
X772320Y480635D01*
X771297Y482600D01*
X770106Y484469D01*
X768758Y486227D01*
X767261Y487861D01*
X765627Y489358D01*
X763869Y490706D01*
X762000Y491897D01*
X760035Y492920D01*
X757987Y493768D01*
X755874Y494435D01*
X753711Y494914D01*
X751514Y495203D01*
X749300Y495300D01*
X25400Y495300D01*
X23186Y495203D01*
X20989Y494914D01*
X18826Y494435D01*
X16713Y493768D01*
X14666Y492920D01*
X12700Y491897D01*
X10831Y490706D01*
X9073Y489358D01*
X7440Y487861D01*
X5942Y486227D01*
X4594Y484469D01*
X3403Y482600D01*
X2380Y480635D01*
X1532Y478587D01*
X865Y476474D01*
X386Y474311D01*
X97Y472114D01*
X0Y469900D01*
X0Y25400D01*
X269206Y456850D02*
X269133Y455643D01*
X268987Y454443D01*
X268769Y453254D01*
X268480Y452081D01*
X268120Y450927D01*
X267692Y449797D01*
X267196Y448695D01*
X266634Y447624D01*
X266009Y446590D01*
X265322Y445595D01*
X264577Y444644D01*
X263775Y443739D01*
X262921Y442885D01*
X262016Y442083D01*
X261064Y441338D01*
X260070Y440651D01*
X259035Y440026D01*
X257965Y439464D01*
X256863Y438968D01*
X255733Y438539D01*
X254579Y438180D01*
X253405Y437891D01*
X252216Y437673D01*
X251017Y437527D01*
X249810Y437454D01*
X248601Y437454D01*
X247395Y437527D01*
X246195Y437673D01*
X245006Y437891D01*
X243833Y438180D01*
X242679Y438539D01*
X241549Y438968D01*
X240446Y439464D01*
X239376Y440026D01*
X238342Y440651D01*
X237347Y441338D01*
X236396Y442083D01*
X235491Y442885D01*
X234636Y443739D01*
X233835Y444644D01*
X233089Y445595D01*
X232403Y446590D01*
X231777Y447624D01*
X231216Y448695D01*
X230720Y449797D01*
X230291Y450927D01*
X229932Y452081D01*
X229642Y453254D01*
X229424Y454443D01*
X229279Y455643D01*
X229206Y456850D01*
X229206Y458058D01*
X229279Y459265D01*
X229424Y460465D01*
X229642Y461654D01*
X229932Y462827D01*
X230291Y463981D01*
X230720Y465111D01*
X231216Y466213D01*
X231777Y467284D01*
X232403Y468318D01*
X233089Y469313D01*
X233835Y470264D01*
X234636Y471169D01*
X235491Y472023D01*
X236396Y472825D01*
X237347Y473570D01*
X238342Y474257D01*
X239376Y474882D01*
X240446Y475444D01*
X241549Y475940D01*
X242679Y476369D01*
X243833Y476728D01*
X245006Y477017D01*
X246195Y477235D01*
X247395Y477381D01*
X248601Y477454D01*
X249810Y477454D01*
X251017Y477381D01*
X252216Y477235D01*
X253405Y477017D01*
X254579Y476728D01*
X255733Y476369D01*
X256863Y475940D01*
X257965Y475444D01*
X259035Y474882D01*
X260070Y474257D01*
X261064Y473570D01*
X262016Y472825D01*
X262921Y472023D01*
X263775Y471169D01*
X264577Y470264D01*
X265322Y469313D01*
X266009Y468318D01*
X266634Y467284D01*
X267196Y466213D01*
X267692Y465111D01*
X268120Y463981D01*
X268480Y462827D01*
X268769Y461654D01*
X268987Y460465D01*
X269133Y459265D01*
X269206Y458058D01*
X269206Y456850D01*
X472406Y456850D02*
X472333Y455643D01*
X472187Y454443D01*
X471969Y453254D01*
X471680Y452081D01*
X471320Y450927D01*
X470892Y449797D01*
X470396Y448695D01*
X469834Y447624D01*
X469209Y446590D01*
X468522Y445595D01*
X467777Y444644D01*
X466975Y443739D01*
X466121Y442885D01*
X465216Y442083D01*
X464264Y441338D01*
X463270Y440651D01*
X462235Y440026D01*
X461165Y439464D01*
X460063Y438968D01*
X458933Y438539D01*
X457779Y438180D01*
X456605Y437891D01*
X455416Y437673D01*
X454217Y437527D01*
X453010Y437454D01*
X451801Y437454D01*
X450595Y437527D01*
X449395Y437673D01*
X448206Y437891D01*
X447033Y438180D01*
X445879Y438539D01*
X444749Y438968D01*
X443646Y439464D01*
X442576Y440026D01*
X441542Y440651D01*
X440547Y441338D01*
X439596Y442083D01*
X438691Y442885D01*
X437836Y443739D01*
X437035Y444644D01*
X436289Y445595D01*
X435603Y446590D01*
X434977Y447624D01*
X434416Y448695D01*
X433920Y449797D01*
X433491Y450927D01*
X433132Y452081D01*
X432842Y453254D01*
X432624Y454443D01*
X432479Y455643D01*
X432406Y456850D01*
X432406Y458058D01*
X432479Y459265D01*
X432624Y460465D01*
X432842Y461654D01*
X433132Y462827D01*
X433491Y463981D01*
X433920Y465111D01*
X434416Y466213D01*
X434977Y467284D01*
X435603Y468318D01*
X436289Y469313D01*
X437035Y470264D01*
X437836Y471169D01*
X438691Y472023D01*
X439596Y472825D01*
X440547Y473570D01*
X441542Y474257D01*
X442576Y474882D01*
X443646Y475444D01*
X444749Y475940D01*
X445879Y476369D01*
X447033Y476728D01*
X448206Y477017D01*
X449395Y477235D01*
X450595Y477381D01*
X451801Y477454D01*
X453010Y477454D01*
X454217Y477381D01*
X455416Y477235D01*
X456605Y477017D01*
X457779Y476728D01*
X458933Y476369D01*
X460063Y475940D01*
X461165Y475444D01*
X462235Y474882D01*
X463270Y474257D01*
X464264Y473570D01*
X465216Y472825D01*
X466121Y472023D01*
X466975Y471169D01*
X467777Y470264D01*
X468522Y469313D01*
X469209Y468318D01*
X469834Y467284D01*
X470396Y466213D01*
X470892Y465111D01*
X471320Y463981D01*
X471680Y462827D01*
X471969Y461654D01*
X472187Y460465D01*
X472333Y459265D01*
X472406Y458058D01*
X472406Y456850D01*
M02*
