G04 EAGLE Gerber X2 export*
%TF.Part,Single*%
%TF.FileFunction,Soldermask,Top,1*%
%TF.FilePolarity,Negative*%
%TF.GenerationSoftware,Autodesk,EAGLE,9.1.0*%
%TF.CreationDate,2019-12-30T04:36:43Z*%
G75*
%MOMM*%
%FSLAX34Y34*%
%LPD*%
%AMOC8*
5,1,8,0,0,1.08239X$1,22.5*%
G01*
%ADD10C,4.127000*%
%ADD11R,2.159000X0.787400*%
%ADD12P,1.457113X8X22.500000*%
%ADD13C,1.346200*%
%ADD14R,1.427000X1.627000*%
%ADD15R,1.627000X1.427000*%
%ADD16P,2.226909X8X22.500000*%
%ADD17P,1.457113X8X292.500000*%
%ADD18C,1.827000*%
%ADD19C,1.651000*%
%ADD20P,1.869504X8X112.500000*%
%ADD21C,1.727200*%
%ADD22C,0.832600*%
%ADD23C,0.889000*%
%ADD24C,0.939800*%


D10*
X249206Y457454D03*
X452406Y457454D03*
D11*
X597440Y70104D03*
X535972Y70104D03*
X597440Y82804D03*
X597440Y95504D03*
X535972Y82804D03*
X535972Y95504D03*
X597440Y108204D03*
X535972Y108204D03*
X597440Y120904D03*
X535972Y120904D03*
X597440Y133604D03*
X597440Y146304D03*
X535972Y133604D03*
X535972Y146304D03*
X597440Y159004D03*
X535972Y159004D03*
D12*
X541306Y451580D03*
X566706Y451580D03*
X541306Y381413D03*
X566706Y381413D03*
X541306Y311245D03*
X566706Y311245D03*
X541306Y242697D03*
X566706Y242697D03*
D11*
X637572Y159004D03*
X699040Y159004D03*
X637572Y146304D03*
X637572Y133604D03*
X699040Y146304D03*
X699040Y133604D03*
X637572Y120904D03*
X699040Y120904D03*
X637572Y108204D03*
X699040Y108204D03*
X637572Y95504D03*
X637572Y82804D03*
X699040Y95504D03*
X699040Y82804D03*
X637572Y70104D03*
X699040Y70104D03*
D13*
X700056Y184404D03*
X700056Y209804D03*
D12*
X725456Y203454D03*
X750856Y203454D03*
X725456Y160560D03*
X750856Y160560D03*
D14*
X728656Y127254D03*
X747656Y127254D03*
D15*
X750856Y73304D03*
X750856Y92304D03*
X725456Y92304D03*
X725456Y73304D03*
D16*
X725456Y25654D03*
X750856Y25654D03*
X611156Y25654D03*
X636556Y25654D03*
X661956Y25654D03*
X687356Y25654D03*
D15*
X591820Y257118D03*
X591820Y238118D03*
X592106Y289045D03*
X592106Y308045D03*
X592106Y359213D03*
X592106Y378213D03*
X591820Y428682D03*
X591820Y447682D03*
D11*
X495840Y70104D03*
X434372Y70104D03*
X495840Y82804D03*
X495840Y95504D03*
X434372Y82804D03*
X434372Y95504D03*
X495840Y108204D03*
X434372Y108204D03*
X495840Y120904D03*
X434372Y120904D03*
X495840Y133604D03*
X495840Y146304D03*
X434372Y133604D03*
X434372Y146304D03*
X495840Y159004D03*
X434372Y159004D03*
D12*
X439706Y381572D03*
X465106Y381572D03*
X439706Y311404D03*
X465106Y311404D03*
X439706Y242792D03*
X465106Y242792D03*
D15*
X491173Y257023D03*
X491173Y238023D03*
X490506Y289204D03*
X490506Y308204D03*
X491173Y358673D03*
X491173Y377673D03*
D17*
X58706Y51054D03*
X58706Y25654D03*
X261906Y51054D03*
X261906Y25654D03*
D11*
X394240Y70104D03*
X332772Y70104D03*
X394240Y82804D03*
X394240Y95504D03*
X332772Y82804D03*
X332772Y95504D03*
X394240Y108204D03*
X332772Y108204D03*
X394240Y120904D03*
X332772Y120904D03*
X394240Y133604D03*
X394240Y146304D03*
X332772Y133604D03*
X332772Y146304D03*
X394240Y159004D03*
X332772Y159004D03*
D12*
X334994Y451580D03*
X360394Y451580D03*
X334994Y381413D03*
X360394Y381413D03*
X334994Y311245D03*
X360394Y311245D03*
X334994Y242634D03*
X360394Y242634D03*
D15*
X387414Y257182D03*
X387414Y238182D03*
X387350Y289045D03*
X387350Y308045D03*
X387350Y359213D03*
X387350Y378213D03*
X387414Y428682D03*
X387414Y447682D03*
D11*
X292640Y70104D03*
X231172Y70104D03*
X292640Y82804D03*
X292640Y95504D03*
X231172Y82804D03*
X231172Y95504D03*
X292640Y108204D03*
X231172Y108204D03*
X292640Y120904D03*
X231172Y120904D03*
X292640Y133604D03*
X292640Y146304D03*
X231172Y133604D03*
X231172Y146304D03*
X292640Y159004D03*
X231172Y159004D03*
D12*
X236506Y381254D03*
X261906Y381254D03*
X236506Y311404D03*
X261906Y311404D03*
X236506Y243110D03*
X261906Y243110D03*
D15*
X287306Y257404D03*
X287306Y238404D03*
X287306Y289204D03*
X287306Y308204D03*
X287306Y359054D03*
X287306Y378054D03*
D17*
X465106Y51054D03*
X465106Y25654D03*
X160306Y51054D03*
X160306Y25654D03*
D11*
X191040Y70104D03*
X129572Y70104D03*
X191040Y82804D03*
X191040Y95504D03*
X129572Y82804D03*
X129572Y95504D03*
X191040Y108204D03*
X129572Y108204D03*
X191040Y120904D03*
X129572Y120904D03*
X191040Y133604D03*
X191040Y146304D03*
X129572Y133604D03*
X129572Y146304D03*
X191040Y159004D03*
X129572Y159004D03*
D12*
X141256Y451104D03*
X166656Y451104D03*
X141256Y381254D03*
X166656Y381254D03*
X141256Y311404D03*
X166656Y311404D03*
X139700Y243110D03*
X165100Y243110D03*
D15*
X192056Y257404D03*
X192056Y238404D03*
X192056Y289204D03*
X192056Y308204D03*
X192056Y359054D03*
X192056Y378054D03*
X192056Y428904D03*
X192056Y447904D03*
D11*
X89440Y70104D03*
X27972Y70104D03*
X89440Y82804D03*
X89440Y95504D03*
X27972Y82804D03*
X27972Y95504D03*
X89440Y108204D03*
X27972Y108204D03*
X89440Y120904D03*
X27972Y120904D03*
X89440Y133604D03*
X89440Y146304D03*
X27972Y133604D03*
X27972Y146304D03*
X89440Y159004D03*
X27972Y159004D03*
D12*
X46006Y311404D03*
X71406Y311404D03*
X46006Y243110D03*
X71406Y243110D03*
D15*
X96806Y257404D03*
X96806Y238404D03*
X96806Y289204D03*
X96806Y308204D03*
D17*
X363506Y51054D03*
X363506Y25654D03*
X528606Y51054D03*
X528606Y25654D03*
D18*
X475901Y190405D03*
X552101Y190405D03*
X300006Y190754D03*
X376206Y190754D03*
X39656Y190754D03*
X115856Y190754D03*
D19*
X671100Y233172D02*
X671100Y248412D01*
X716312Y248412D02*
X716312Y233172D01*
X671100Y298196D02*
X671100Y313436D01*
X716312Y313436D02*
X716312Y298196D01*
X671100Y334772D02*
X671100Y350012D01*
X716312Y350012D02*
X716312Y334772D01*
X671100Y399796D02*
X671100Y415036D01*
X716312Y415036D02*
X716312Y399796D01*
D15*
X744506Y314554D03*
X744506Y295554D03*
D18*
X166656Y190754D03*
X242856Y190754D03*
D14*
X100006Y38354D03*
X119006Y38354D03*
X220606Y38354D03*
X201606Y38354D03*
D15*
X585819Y211271D03*
X585819Y192271D03*
D14*
X322206Y38354D03*
X303206Y38354D03*
D19*
X40164Y364998D02*
X24924Y364998D01*
X24924Y410210D02*
X40164Y410210D01*
X89948Y364998D02*
X105188Y364998D01*
X105188Y410210D02*
X89948Y410210D01*
D20*
X568928Y47466D03*
D21*
X568928Y22066D03*
D19*
X731711Y448215D02*
X731711Y463455D01*
X706311Y463455D02*
X706311Y448215D01*
X680911Y448215D02*
X680911Y463455D01*
X303213Y429133D02*
X287973Y429133D01*
X287973Y454533D02*
X303213Y454533D01*
D22*
X176181Y168529D03*
X147606Y165354D03*
X144431Y178054D03*
X106331Y178054D03*
X230251Y412274D03*
X224028Y343821D03*
D23*
X309594Y402939D03*
X312706Y343821D03*
X421608Y412274D03*
X415385Y340709D03*
X521176Y413830D03*
X521176Y342265D03*
X280035Y189802D03*
X415385Y174244D03*
X211582Y20225D03*
D22*
X655606Y159004D03*
X668306Y95504D03*
X10418Y146304D03*
X258118Y133632D03*
X349510Y132309D03*
X147606Y146304D03*
X128556Y57404D03*
X516509Y93345D03*
X655606Y133604D03*
D23*
X678307Y73120D03*
D22*
X681006Y120904D03*
X681006Y152654D03*
X655606Y120904D03*
D23*
X668973Y59119D03*
D22*
X617506Y146304D03*
D24*
X577183Y133795D03*
D23*
X555403Y127572D03*
X514953Y188246D03*
D22*
X560356Y146304D03*
X580962Y146304D03*
X512731Y155829D03*
X331756Y171704D03*
X588931Y171704D03*
X560257Y171704D03*
D24*
X536734Y171133D03*
D22*
X376206Y114554D03*
D24*
X399828Y188246D03*
X415385Y112014D03*
D22*
X452406Y95504D03*
X439706Y178054D03*
X439706Y209804D03*
X261906Y209804D03*
X261906Y159004D03*
D23*
X452723Y261366D03*
D24*
X351600Y163354D03*
X374936Y133795D03*
D22*
X254822Y68156D03*
X215837Y95504D03*
X167390Y63754D03*
X239681Y212979D03*
X207931Y101854D03*
X206705Y203736D03*
X231684Y171704D03*
X376269Y146304D03*
X312706Y105029D03*
D23*
X210026Y59119D03*
X312706Y79343D03*
D22*
X185706Y216154D03*
X160306Y139954D03*
X153956Y82804D03*
X153956Y108204D03*
X46006Y133604D03*
X65790Y133604D03*
X147606Y130429D03*
X166115Y146304D03*
D23*
X110458Y96457D03*
X56007Y82455D03*
D22*
X731203Y283147D03*
X704755Y283147D03*
X693706Y298704D03*
X693706Y260604D03*
X642906Y171704D03*
X598456Y54900D03*
X642906Y476504D03*
X604806Y184404D03*
X554006Y82804D03*
X128556Y171704D03*
X33306Y171704D03*
X134906Y44704D03*
X210026Y427831D03*
X407607Y429387D03*
X616077Y427831D03*
X575628Y359378D03*
X575628Y289370D03*
X507175Y357823D03*
X507175Y289370D03*
X370269Y289370D03*
X370269Y357823D03*
X304927Y289370D03*
X172688Y289370D03*
X77788Y289370D03*
X172688Y360934D03*
X264478Y360934D03*
X272256Y115126D03*
X416941Y155575D03*
D23*
X354711Y80899D03*
D22*
X678307Y175796D03*
D23*
X658082Y68453D03*
X654971Y56007D03*
M02*
