G04 EAGLE Gerber X2 export*
%TF.Part,Single*%
%TF.FileFunction,Paste,Top*%
%TF.FilePolarity,Positive*%
%TF.GenerationSoftware,Autodesk,EAGLE,9.1.0*%
%TF.CreationDate,2019-12-30T04:36:43Z*%
G75*
%MOMM*%
%FSLAX34Y34*%
%LPD*%
%AMOC8*
5,1,8,0,0,1.08239X$1,22.5*%
G01*
%ADD10R,2.032000X0.660400*%
%ADD11R,1.300000X1.500000*%
%ADD12R,1.500000X1.300000*%


D10*
X597440Y70104D03*
X535972Y70104D03*
X597440Y82804D03*
X597440Y95504D03*
X535972Y82804D03*
X535972Y95504D03*
X597440Y108204D03*
X535972Y108204D03*
X597440Y120904D03*
X535972Y120904D03*
X597440Y133604D03*
X597440Y146304D03*
X535972Y133604D03*
X535972Y146304D03*
X597440Y159004D03*
X535972Y159004D03*
X637572Y159004D03*
X699040Y159004D03*
X637572Y146304D03*
X637572Y133604D03*
X699040Y146304D03*
X699040Y133604D03*
X637572Y120904D03*
X699040Y120904D03*
X637572Y108204D03*
X699040Y108204D03*
X637572Y95504D03*
X637572Y82804D03*
X699040Y95504D03*
X699040Y82804D03*
X637572Y70104D03*
X699040Y70104D03*
D11*
X728656Y127254D03*
X747656Y127254D03*
D12*
X750856Y73304D03*
X750856Y92304D03*
X725456Y92304D03*
X725456Y73304D03*
X591820Y257118D03*
X591820Y238118D03*
X592106Y289045D03*
X592106Y308045D03*
X592106Y359213D03*
X592106Y378213D03*
X591820Y428682D03*
X591820Y447682D03*
D10*
X495840Y70104D03*
X434372Y70104D03*
X495840Y82804D03*
X495840Y95504D03*
X434372Y82804D03*
X434372Y95504D03*
X495840Y108204D03*
X434372Y108204D03*
X495840Y120904D03*
X434372Y120904D03*
X495840Y133604D03*
X495840Y146304D03*
X434372Y133604D03*
X434372Y146304D03*
X495840Y159004D03*
X434372Y159004D03*
D12*
X491173Y257023D03*
X491173Y238023D03*
X490506Y289204D03*
X490506Y308204D03*
X491173Y358673D03*
X491173Y377673D03*
D10*
X394240Y70104D03*
X332772Y70104D03*
X394240Y82804D03*
X394240Y95504D03*
X332772Y82804D03*
X332772Y95504D03*
X394240Y108204D03*
X332772Y108204D03*
X394240Y120904D03*
X332772Y120904D03*
X394240Y133604D03*
X394240Y146304D03*
X332772Y133604D03*
X332772Y146304D03*
X394240Y159004D03*
X332772Y159004D03*
D12*
X387414Y257182D03*
X387414Y238182D03*
X387350Y289045D03*
X387350Y308045D03*
X387350Y359213D03*
X387350Y378213D03*
X387414Y428682D03*
X387414Y447682D03*
D10*
X292640Y70104D03*
X231172Y70104D03*
X292640Y82804D03*
X292640Y95504D03*
X231172Y82804D03*
X231172Y95504D03*
X292640Y108204D03*
X231172Y108204D03*
X292640Y120904D03*
X231172Y120904D03*
X292640Y133604D03*
X292640Y146304D03*
X231172Y133604D03*
X231172Y146304D03*
X292640Y159004D03*
X231172Y159004D03*
D12*
X287306Y257404D03*
X287306Y238404D03*
X287306Y289204D03*
X287306Y308204D03*
X287306Y359054D03*
X287306Y378054D03*
D10*
X191040Y70104D03*
X129572Y70104D03*
X191040Y82804D03*
X191040Y95504D03*
X129572Y82804D03*
X129572Y95504D03*
X191040Y108204D03*
X129572Y108204D03*
X191040Y120904D03*
X129572Y120904D03*
X191040Y133604D03*
X191040Y146304D03*
X129572Y133604D03*
X129572Y146304D03*
X191040Y159004D03*
X129572Y159004D03*
D12*
X192056Y257404D03*
X192056Y238404D03*
X192056Y289204D03*
X192056Y308204D03*
X192056Y359054D03*
X192056Y378054D03*
X192056Y428904D03*
X192056Y447904D03*
D10*
X89440Y70104D03*
X27972Y70104D03*
X89440Y82804D03*
X89440Y95504D03*
X27972Y82804D03*
X27972Y95504D03*
X89440Y108204D03*
X27972Y108204D03*
X89440Y120904D03*
X27972Y120904D03*
X89440Y133604D03*
X89440Y146304D03*
X27972Y133604D03*
X27972Y146304D03*
X89440Y159004D03*
X27972Y159004D03*
D12*
X96806Y257404D03*
X96806Y238404D03*
X96806Y289204D03*
X96806Y308204D03*
X744506Y314554D03*
X744506Y295554D03*
D11*
X100006Y38354D03*
X119006Y38354D03*
X220606Y38354D03*
X201606Y38354D03*
D12*
X585819Y211271D03*
X585819Y192271D03*
D11*
X322206Y38354D03*
X303206Y38354D03*
M02*
